<svg viewBox="-208.5 20.5 100 100" xml:space="preserve" xmlns="http://www.w3.org/2000/svg" xmlns:xlink="http://www.w3.org/1999/xlink"><circle cx="-158.5" cy="70.5" fill="#F5EEE5" r="50"/><defs><circle cx="-158.5" cy="70.5" id="a" r="50"/></defs><clipPath id="b"><use overflow="visible" xlink:href="#a"/></clipPath><path clip-path="url(#b)" d="m-143.5 96.4 27.9 7.7c3.2 1.1 5.7 3.5 7.1 6.6v9.8h-100v-9.8c1.3-3.1 3.9-5.5 7.1-6.6l27.9-7.7V81.5h30v14.9z" fill="#D4B08C"/><g clip-path="url(#b)"><defs><path d="m-143.5 96.4 27.9 7.7c3.2 1.1 5.7 3.5 7.1 6.6v9.8h-100v-9.8c1.3-3.1 3.9-5.5 7.1-6.6l27.9-7.7V81.5h30v14.9z" id="c"/></defs><clipPath id="d"><use overflow="visible" xlink:href="#c"/></clipPath><path clip-path="url(#d)" d="M-158.3 100.5h-7.2l-8-4.1-35-.9v25h100.4v-25h-38.2l-4.8 5h-7.2z" fill="#1E1F24"/></g><path d="M-158.5 94.5c-1.5 0-3.5-.3-4.8-.9-1.6-.7-7.2-4.6-9.1-6.3-2.5-2.3-3.8-5.1-4.2-10s-1.9-22.4-1.9-26.4c0-5.7 5.1-14.5 19.9-14.5 14.8 0 19.9 8.8 19.9 14.5 0 4-1.5 21.5-1.9 26.4s-1.6 7.7-4.2 10c-1.9 1.7-7.6 5.6-9.1 6.3-1.1.6-3.1.9-4.6.9z" fill="#F2CEA5"/><defs><path d="M-158.5 94.5c-1.5 0-3.5-.3-4.8-.9-1.6-.7-7.2-4.6-9.1-6.3-2.5-2.3-3.8-5.1-4.2-10s-1.9-22.4-1.9-26.4c0-5.7 5.1-14.5 19.9-14.5 14.8 0 19.9 8.8 19.9 14.5 0 4-1.5 21.5-1.9 26.4s-1.6 7.7-4.2 10c-1.9 1.7-7.6 5.6-9.1 6.3-1.1.6-3.1.9-4.6.9z" id="e"/></defs><clipPath id="f"><use overflow="visible" xlink:href="#e"/></clipPath><path clip-path="url(#f)" d="M-147.5 81.5c-1-1.2-3-2.9-6.3-3s-2.5 1.9-4.7 2h-.2c-2.1-.1-1.3-2-4.7-2s-5.4 1.7-6.3 3l-8-11v27h38.2v-27l-8 11zm-7 7c-1.1-.1-1.7-.4-2-.8 0-.6-.4-1.3-2.1-1.2-1.7-.1-2 .6-2.1 1.2-.3.4-.9.8-2 .8-3.8-.2-5-2.7-5-4.5s1.5-2.5 5-2.5c2.5 0 1.7.9 4 1h.2c2.3 0 1.5-1 4-1 3.5 0 5 .7 5 2.5s-1.2 4.3-5 4.5z" fill="#2D2E35"/><path d="M-155.5 85.5h-6c-.6 0-1-.4-1-1s.4-1 1-1h6c.6 0 1 .4 1 1s-.4 1-1 1z" fill="#A3705F"/><path d="M-149.5 67.5c1.1 0 2-.9 2-2s-.9-2-2-2-2 .9-2 2 .9 2 2 2zm-18 0c1.1 0 2-.9 2-2s-.9-2-2-2-2 .9-2 2 .9 2 2 2z" fill="#262626"/><path d="M-161.9 64c-.5-.8-1.9-2.5-5.5-2.5-4.1 0-5.1 2.3-5.1 2.4l-1.9-.7c.1-.1 1.4-3.6 7-3.6 4.6 0 6.6 2.4 7.2 3.5l-1.7.9z" fill="#CC9872"/><path d="M-157.5 74.5v-9c0-2.5 2.5-5.9 8-6 5.5 0 6.9 3.5 7 3.6l-1.9.7c0-.1-1-2.3-5.1-2.4-4.1 0-6 2.4-6 4v9l-2 .1z" fill="#BB8660"/><path d="m-173.4 94.9 1.7-2.8 12.9 5.9 13.1-4.9 2.2 2.2v6.5s-10.8 10.6-15 10.7c-4.2 0-14.9-11.5-14.9-11.5v-6.1z" fill="#D4B08C"/><defs><circle cx="-158.5" cy="70.5" id="g" r="50"/></defs><clipPath id="h"><use overflow="visible" xlink:href="#g"/></clipPath><path clip-path="url(#h)" d="M-143.5 96.4v5.1c0 14.1-8.5 19.7-8.5 19.7h-12.3s-9.2-6.7-9.2-18.7v-6.1c1 1 2.6 9.1 15.3 9.1s13.7-8.1 14.7-9.1z" fill="#6B363E"/><path fill="#E1BC90" d="M-167.4 50.5h17.9v2h-17.9zm4 4h9.9v2h-9.9z"/><path d="M-139.4 65.5s.1-13.1-5.5-20.3c-1.3 1.2-3.5 2.2-6.5 2.2s-5.9-1.1-9.3-2.8-5.3-3.1-8.3-3.4c-2 .7-8.5 5.9-8.5 14.9s.2 12.3.2 12.3-4.2-5.7-4.2-14.3 4.8-14.8 10.7-15c2.4-2.2 7-3.8 11.9-3.8s14.5 2.4 18.5 9.2c5.9 9.9 1 21 1 21z" fill="#2D2E35"/></svg>